<svg xmlns="http://www.w3.org/2000/svg" viewBox="0 0 800 400">
  <rect width="800" height="400" fill="#141720"/>
  <rect x="0" y="280" width="800" height="120" fill="#1a1e2e" opacity="0.5"/>
  <!-- Mountains -->
  <polygon fill="#1e2235" points="0,320 120,180 200,240 320,140 400,200 500,100 600,180 700,120 800,200 800,400 0,400"/>
  <polygon fill="#252a40" points="0,350 100,250 180,300 280,200 380,260 480,160 580,220 680,180 800,260 800,400 0,400"/>
  <!-- Stars -->
  <circle fill="#6b7394" cx="100" cy="60" r="1.5" opacity="0.6"/>
  <circle fill="#6b7394" cx="200" cy="100" r="1" opacity="0.4"/>
  <circle fill="#6b7394" cx="350" cy="40" r="1.5" opacity="0.7"/>
  <circle fill="#6b7394" cx="500" cy="80" r="1" opacity="0.5"/>
  <circle fill="#6b7394" cx="650" cy="50" r="1.5" opacity="0.6"/>
  <circle fill="#6b7394" cx="720" cy="120" r="1" opacity="0.3"/>
  <!-- Amber track -->
  <line x1="60" y1="100" x2="740" y2="300" stroke="#f0a031" stroke-width="2" stroke-dasharray="8 5" opacity="0.4"/>
  <circle fill="#f0a031" cx="740" cy="300" r="4" opacity="0.5"/>
  <!-- Caption -->
  <text x="400" y="370" font-family="monospace" font-size="14" fill="#6b7394" text-anchor="middle" letter-spacing="0.1em">PLACEHOLDER — REPLACE WITH PHOTO</text>
</svg>
