<svg xmlns="http://www.w3.org/2000/svg" viewBox="0 0 492.92 110.25"><defs><style>.cls-1{fill:#e2e4ed;}</style></defs><title>default_mono</title><g id="Layer_2" data-name="Layer 2"><g id="Layer_1-2" data-name="Layer 1"><polygon class="cls-1" points="13.97 110.03 9.42 110.03 61.05 14.75 84.3 50.11 111.4 0 161.4 110.03 156.97 110.03 111.08 8.99 84.63 57.9 61.38 22.53 13.97 110.03"/><polygon class="cls-1" points="185.92 102.7 154.46 92.74 152.43 87.91 187.13 98.89 185.92 102.7"/><path class="cls-1" d="M51.69,59.84a1.8,1.8,0,0,1-.6-.1l-1.91-.6a2,2,0,1,1,1.22-3.81l1.9.6a2,2,0,0,1-.61,3.91Z"/><path class="cls-1" d="M128.56,84.41a2.16,2.16,0,0,1-.61-.1l-3.84-1.23a2,2,0,1,1,1.21-3.81l3.85,1.23a2,2,0,0,1-.61,3.91Zm-15.38-4.92a2.08,2.08,0,0,1-.6-.09l-3.85-1.23A2,2,0,0,1,110,74.36l3.84,1.23a2,2,0,0,1-.61,3.9ZM97.81,74.58a1.9,1.9,0,0,1-.61-.1l-3.84-1.22a2,2,0,1,1,1.22-3.81l3.84,1.22a2,2,0,0,1-.61,3.91ZM82.44,69.67a1.86,1.86,0,0,1-.61-.1L78,68.34a2,2,0,1,1,1.22-3.81l3.84,1.23a2,2,0,0,1-.61,3.91ZM67.07,64.75a2.15,2.15,0,0,1-.61-.09l-3.85-1.23a2,2,0,0,1,1.22-3.81l3.85,1.23a2,2,0,0,1-.61,3.9Z"/><path class="cls-1" d="M142,88.7a1.9,1.9,0,0,1-.61-.1l-1.9-.61a2,2,0,1,1,1.22-3.81l1.9.61A2,2,0,0,1,142,88.7Z"/><polygon class="cls-1" points="37.92 55.55 0 43.47 1.22 39.66 39.89 51.98 37.92 55.55"/><circle class="cls-1" cx="186.52" cy="100.8" r="9.24"/><path class="cls-1" d="M227.5,43.44H215.26v18H207.4V19.56h7.86V37H227.5V19.56h7.86V61.44H227.5Z"/><path class="cls-1" d="M244.06,61.44V55.56h9.42V25.44h-9.42V19.56H270.7v5.88h-9.42V55.56h9.42v5.88Z"/><path class="cls-1" d="M294.46,62.16q-8.22,0-12.15-5.64t-3.93-16q0-10.32,3.93-16t12.15-5.67a16.68,16.68,0,0,1,5.49.83A13.21,13.21,0,0,1,304.06,22a12.35,12.35,0,0,1,2.88,3.52,20.12,20.12,0,0,1,1.8,4.52l-7.2,2a23.69,23.69,0,0,0-1-2.7,8.26,8.26,0,0,0-1.35-2.19,5.45,5.45,0,0,0-2-1.44,7.34,7.34,0,0,0-2.88-.51,6.19,6.19,0,0,0-5.85,3.14,17.39,17.39,0,0,0-1.77,8.55v7.23a17.44,17.44,0,0,0,1.77,8.55,6.18,6.18,0,0,0,5.85,3.13,7.34,7.34,0,0,0,2.88-.51,5.45,5.45,0,0,0,2-1.44,8.26,8.26,0,0,0,1.35-2.19,23.69,23.69,0,0,0,1-2.7l7.2,2a19.93,19.93,0,0,1-1.8,4.52A12.22,12.22,0,0,1,304.06,59,13,13,0,0,1,300,61.33,16.68,16.68,0,0,1,294.46,62.16Z"/><path class="cls-1" d="M328.9,62.16a21,21,0,0,1-9.21-1.84,17.4,17.4,0,0,1-6.21-4.88l4.74-4.92a15.57,15.57,0,0,0,5.07,4,13.52,13.52,0,0,0,5.85,1.29,8.28,8.28,0,0,0,5.52-1.63,5.85,5.85,0,0,0,1.92-4.72,4.88,4.88,0,0,0-1.44-3.83,9.49,9.49,0,0,0-4.86-1.85l-4.44-.72q-5.82-1-8.28-4.22a12.11,12.11,0,0,1-2.46-7.58q0-6,3.9-9.2t10.8-3.21a21.28,21.28,0,0,1,8.49,1.55A14.74,14.74,0,0,1,344,24.61l-4.62,4.91a12.61,12.61,0,0,0-4-3.15,12.21,12.21,0,0,0-5.52-1.17q-6.84,0-6.84,5.69a4.67,4.67,0,0,0,1.44,3.69,10.24,10.24,0,0,0,4.92,1.87l4.38.78q5.46,1,8.1,4a11.15,11.15,0,0,1,2.64,7.67,13.69,13.69,0,0,1-1,5.36,11.58,11.58,0,0,1-3,4.2,13.62,13.62,0,0,1-4.89,2.72A21.34,21.34,0,0,1,328.9,62.16Z"/><path class="cls-1" d="M213.82,80.33h-4.9V86h-1.51V73.47h1.51V79h4.9V73.47h1.51V86h-1.51Z"/><path class="cls-1" d="M220.08,86v-1.2h3.13V74.67h-3.13v-1.2h7.78v1.2h-3.13V84.83h3.13V86Z"/><path class="cls-1" d="M239.36,79.73v-4h-.14l-2.65,6.47-2.65-6.47h-.14V86h-1.39V73.47h2L236.55,79h.11l2.21-5.54h1.88V86h-1.39Z"/><path class="cls-1" d="M252.43,86l-1.06-3.58H247L245.89,86h-1.56l3.85-12.56h2L254,86Zm-3.19-11h-.16l-1.76,6.07H251Z"/><path class="cls-1" d="M258.53,86V73.47H260V84.72h6V86Z"/><path class="cls-1" d="M277.63,86l-1.06-3.58h-4.41L271.09,86h-1.56l3.85-12.56h2L279.23,86Zm-3.19-11h-.16l-1.76,6.07h3.69Z"/><path class="cls-1" d="M286.21,86V81.1l-4.33-7.63h1.72l1.8,3.27,1.53,2.87H287l1.57-2.87,1.8-3.27h1.69l-4.33,7.63V86Z"/><path class="cls-1" d="M302.83,86l-1.07-3.58h-4.41L296.29,86h-1.56l3.85-12.56h2L304.43,86Zm-3.19-11h-.16l-1.77,6.07h3.7Z"/><path class="cls-1" d="M309.7,75.45h-.12V86h-1.37V73.47h2.14l4.29,10.58h.12V73.47h1.37V86H314Z"/><path class="cls-1" d="M333.48,86v-1.2h3.13V74.67h-3.13v-1.2h7.78v1.2h-3.13V84.83h3.13V86Z"/><path class="cls-1" d="M347.5,75.45h-.12V86H346V73.47h2.14l4.28,10.58h.13V73.47h1.37V86h-2.14Z"/><path class="cls-1" d="M362.53,86.25a5.43,5.43,0,0,1-2.77-.63A5.71,5.71,0,0,1,358,84l1.1-.9a5.36,5.36,0,0,0,1.55,1.36,4,4,0,0,0,2,.45,3.06,3.06,0,0,0,2.08-.62,2.21,2.21,0,0,0,.72-1.76,1.9,1.9,0,0,0-.52-1.42,3.38,3.38,0,0,0-1.82-.72l-1.4-.24a5.37,5.37,0,0,1-1.54-.48,3.21,3.21,0,0,1-1-.79,2.82,2.82,0,0,1-.54-1,3.88,3.88,0,0,1-.16-1.14,3.11,3.11,0,0,1,1.13-2.61,4.86,4.86,0,0,1,3.06-.89,5.74,5.74,0,0,1,2.55.51,4.25,4.25,0,0,1,1.67,1.44l-1.07.91A4.2,4.2,0,0,0,364.49,75a3.69,3.69,0,0,0-1.9-.43,3.19,3.19,0,0,0-2,.53,2,2,0,0,0-.68,1.61,1.89,1.89,0,0,0,.51,1.37,3.41,3.41,0,0,0,1.85.76l1.35.24a5.45,5.45,0,0,1,1.55.48,3.27,3.27,0,0,1,1,.78,2.63,2.63,0,0,1,.55,1,4.08,4.08,0,0,1,.16,1.17,3.45,3.45,0,0,1-1.14,2.74A4.8,4.8,0,0,1,362.53,86.25Z"/><path class="cls-1" d="M375.92,74.78V86h-1.51V74.78h-4.19V73.47h9.9v1.31Z"/><path class="cls-1" d="M383.88,86v-1.2H387V74.67h-3.13v-1.2h7.78v1.2h-3.14V84.83h3.14V86Z"/><path class="cls-1" d="M401.12,74.78V86h-1.51V74.78h-4.19V73.47h9.9v1.31Z"/><path class="cls-1" d="M410.52,73.47V81c0,.61,0,1.16.05,1.64a3.83,3.83,0,0,0,.29,1.23,1.67,1.67,0,0,0,.73.78,2.91,2.91,0,0,0,1.38.27,2.87,2.87,0,0,0,1.37-.27,1.63,1.63,0,0,0,.73-.78,3.37,3.37,0,0,0,.29-1.23c0-.48.06-1,.06-1.64V73.47h1.51v7.18a19.31,19.31,0,0,1-.14,2.45,4.3,4.3,0,0,1-.56,1.74A2.64,2.64,0,0,1,415,85.9a6.24,6.24,0,0,1-4.12,0,2.62,2.62,0,0,1-1.21-1.06,4.46,4.46,0,0,1-.56-1.74,19.48,19.48,0,0,1-.13-2.45V73.47Z"/><path class="cls-1" d="M426.32,74.78V86h-1.51V74.78h-4.19V73.47h9.9v1.31Z"/><path class="cls-1" d="M434.39,86V73.47h7.74v1.31H435.9V79h6v1.32h-6v4.39h6.23V86Z"/><path class="cls-1" d="M207.59,110V97.47h7.92v1.31H209.1V103H215v1.32H209.1V110Z"/><path class="cls-1" d="M224,110.25a4.19,4.19,0,0,1-2-.44,3.78,3.78,0,0,1-1.37-1.27,5.92,5.92,0,0,1-.79-2,15.2,15.2,0,0,1,0-5.49,6,6,0,0,1,.79-2.05A3.78,3.78,0,0,1,222,97.69a4.67,4.67,0,0,1,4,0A3.78,3.78,0,0,1,227.32,99a6,6,0,0,1,.79,2.05,15.2,15.2,0,0,1,0,5.49,5.92,5.92,0,0,1-.79,2,3.78,3.78,0,0,1-1.37,1.27A4.19,4.19,0,0,1,224,110.25Zm0-1.32a2.55,2.55,0,0,0,1.28-.29,2.47,2.47,0,0,0,.86-.84,3.92,3.92,0,0,0,.5-1.3,9,9,0,0,0,.15-1.72v-2.06a9.07,9.07,0,0,0-.15-1.71,4,4,0,0,0-.5-1.31,2.47,2.47,0,0,0-.86-.84,3,3,0,0,0-2.56,0,2.47,2.47,0,0,0-.86.84,4,4,0,0,0-.5,1.31,9.07,9.07,0,0,0-.15,1.71v2.06a9,9,0,0,0,.15,1.72,3.92,3.92,0,0,0,.5,1.3,2.47,2.47,0,0,0,.86.84A2.55,2.55,0,0,0,224,108.93Z"/><path class="cls-1" d="M234.3,110h-1.51V97.47h4.57a3.57,3.57,0,0,1,2.67,1,3.71,3.71,0,0,1,.91,2.67,3.58,3.58,0,0,1-.79,2.44,3.3,3.3,0,0,1-2.3,1.07l3.2,5.43h-1.69l-3.06-5.36h-2Zm3-6.64a2.13,2.13,0,0,0,1.48-.48,1.7,1.7,0,0,0,.53-1.36v-.93a1.71,1.71,0,0,0-.53-1.36,2.13,2.13,0,0,0-1.48-.48h-3v4.61Z"/><path class="cls-1" d="M262.18,110.25a3.85,3.85,0,0,1-3.43-1.68,8.61,8.61,0,0,1-1.12-4.82,8.61,8.61,0,0,1,1.12-4.82,3.85,3.85,0,0,1,3.43-1.68,4.21,4.21,0,0,1,1.5.24,3.2,3.2,0,0,1,1.08.63,3.74,3.74,0,0,1,.75.89,7.49,7.49,0,0,1,.54,1l-1.29.59a5.65,5.65,0,0,0-.38-.78,2.72,2.72,0,0,0-.51-.65,2.19,2.19,0,0,0-.7-.44,2.63,2.63,0,0,0-1-.16A2.46,2.46,0,0,0,260,99.7a5.58,5.58,0,0,0-.73,3v2.06a5.58,5.58,0,0,0,.73,3,2.46,2.46,0,0,0,2.22,1.13,2.63,2.63,0,0,0,1-.16,2.19,2.19,0,0,0,.7-.44,2.53,2.53,0,0,0,.51-.65,5.65,5.65,0,0,0,.38-.78l1.29.59a6.53,6.53,0,0,1-.54,1,3.69,3.69,0,0,1-.75.88,3.2,3.2,0,0,1-1.08.63A4.21,4.21,0,0,1,262.18,110.25Z"/><path class="cls-1" d="M274.37,110.25a4.19,4.19,0,0,1-2-.44,3.78,3.78,0,0,1-1.37-1.27,5.92,5.92,0,0,1-.79-2,15.2,15.2,0,0,1,0-5.49A6,6,0,0,1,271,99a3.78,3.78,0,0,1,1.37-1.27,4.68,4.68,0,0,1,4,0A3.78,3.78,0,0,1,277.72,99a6,6,0,0,1,.79,2.05,15.2,15.2,0,0,1,0,5.49,5.92,5.92,0,0,1-.79,2,3.78,3.78,0,0,1-1.37,1.27A4.19,4.19,0,0,1,274.37,110.25Zm0-1.32a2.55,2.55,0,0,0,1.28-.29,2.47,2.47,0,0,0,.86-.84,3.92,3.92,0,0,0,.5-1.3,9,9,0,0,0,.15-1.72v-2.06A9.07,9.07,0,0,0,277,101a4,4,0,0,0-.5-1.31,2.47,2.47,0,0,0-.86-.84,3,3,0,0,0-2.56,0,2.47,2.47,0,0,0-.86.84,4,4,0,0,0-.5,1.31,9.07,9.07,0,0,0-.15,1.71v2.06a9,9,0,0,0,.15,1.72,3.92,3.92,0,0,0,.5,1.3,2.47,2.47,0,0,0,.86.84A2.55,2.55,0,0,0,274.37,108.93Z"/><path class="cls-1" d="M284.5,99.45h-.12V110H283V97.47h2.14l4.29,10.58h.12V97.47h1.37V110h-2.14Z"/><path class="cls-1" d="M300.33,98.78V110h-1.52V98.78h-4.19V97.47h9.9v1.31Z"/><path class="cls-1" d="M308.39,110V97.47h7.74v1.31H309.9V103h6v1.32h-6v4.39h6.23V110Z"/><path class="cls-1" d="M329.72,110H328l-1.49-2.5-1.66-2.74h-.07l-1.71,2.74-1.59,2.5h-1.65l4.1-6.41-3.87-6.15h1.71l1.46,2.43,1.56,2.54h.08l1.54-2.54,1.52-2.43h1.65l-3.88,6.14Z"/><path class="cls-1" d="M338.13,98.78V110h-1.52V98.78h-4.19V97.47h9.9v1.31Z"/><path class="cls-1" d="M347.52,97.47V105c0,.61,0,1.16.05,1.64a3.83,3.83,0,0,0,.29,1.23,1.67,1.67,0,0,0,.73.78,3.66,3.66,0,0,0,2.76,0,1.65,1.65,0,0,0,.72-.78,3.37,3.37,0,0,0,.29-1.23c0-.48.06-1,.06-1.64V97.47h1.51v7.18a19.31,19.31,0,0,1-.14,2.45,4.46,4.46,0,0,1-.55,1.74A2.72,2.72,0,0,1,352,109.9a6.24,6.24,0,0,1-4.12,0,2.67,2.67,0,0,1-1.21-1.06,4.46,4.46,0,0,1-.56-1.74,19.48,19.48,0,0,1-.13-2.45V97.47Z"/><path class="cls-1" d="M365.83,110l-1.07-3.58h-4.41L359.29,110h-1.56l3.85-12.56h2L367.43,110Zm-3.19-11h-.16l-1.77,6.07h3.69Z"/><path class="cls-1" d="M371.93,110V97.47h1.51v11.25h6V110Z"/><path class="cls-1" d="M400.33,110.25a5.43,5.43,0,0,1-2.77-.63,5.71,5.71,0,0,1-1.78-1.6l1.1-.9a5.36,5.36,0,0,0,1.55,1.36,4,4,0,0,0,2,.45,3.06,3.06,0,0,0,2.08-.62,2.21,2.21,0,0,0,.72-1.76,1.9,1.9,0,0,0-.52-1.42,3.38,3.38,0,0,0-1.82-.72l-1.4-.24a5.37,5.37,0,0,1-1.54-.48,3.21,3.21,0,0,1-1-.79,2.82,2.82,0,0,1-.54-1,3.88,3.88,0,0,1-.16-1.14,3.11,3.11,0,0,1,1.13-2.61,4.86,4.86,0,0,1,3.06-.89,5.74,5.74,0,0,1,2.55.51,4.25,4.25,0,0,1,1.67,1.44l-1.07.91A4.2,4.2,0,0,0,402.29,99a3.69,3.69,0,0,0-1.9-.43,3.19,3.19,0,0,0-2,.53,2,2,0,0,0-.68,1.61,1.89,1.89,0,0,0,.51,1.37,3.37,3.37,0,0,0,1.85.76l1.35.24a5.45,5.45,0,0,1,1.55.48,3.39,3.39,0,0,1,1,.78,2.63,2.63,0,0,1,.55,1,4.08,4.08,0,0,1,.16,1.17,3.45,3.45,0,0,1-1.14,2.74A4.8,4.8,0,0,1,400.33,110.25Z"/><path class="cls-1" d="M413.38,110.25a3.84,3.84,0,0,1-3.43-1.68,8.61,8.61,0,0,1-1.12-4.82A8.61,8.61,0,0,1,410,98.93a3.84,3.84,0,0,1,3.43-1.68,4.21,4.21,0,0,1,1.5.24,3.2,3.2,0,0,1,1.08.63,4,4,0,0,1,.75.89,7.49,7.49,0,0,1,.54,1l-1.29.59a5.65,5.65,0,0,0-.38-.78,3,3,0,0,0-.52-.65,2.09,2.09,0,0,0-.7-.44,2.58,2.58,0,0,0-1-.16,2.43,2.43,0,0,0-2.22,1.13,5.49,5.49,0,0,0-.73,3v2.06a5.49,5.49,0,0,0,.73,3,2.43,2.43,0,0,0,2.22,1.13,2.58,2.58,0,0,0,1-.16,2.09,2.09,0,0,0,.7-.44,2.8,2.8,0,0,0,.52-.65,5.65,5.65,0,0,0,.38-.78l1.29.59a6.53,6.53,0,0,1-.54,1,3.93,3.93,0,0,1-.75.88,3.2,3.2,0,0,1-1.08.63A4.21,4.21,0,0,1,413.38,110.25Z"/><path class="cls-1" d="M421.68,110v-1.2h3.13V98.67h-3.13v-1.2h7.78v1.2h-3.14v10.16h3.14V110Z"/><path class="cls-1" d="M434.39,110V97.47h7.74v1.31H435.9V103h6v1.32h-6v4.39h6.23V110Z"/><path class="cls-1" d="M448.3,99.45h-.13V110h-1.36V97.47H449l4.28,10.58h.13V97.47h1.37V110h-2.14Z"/><path class="cls-1" d="M463.78,110.25a3.84,3.84,0,0,1-3.43-1.68,8.61,8.61,0,0,1-1.12-4.82,8.61,8.61,0,0,1,1.12-4.82,3.84,3.84,0,0,1,3.43-1.68,4.16,4.16,0,0,1,1.49.24,3.2,3.2,0,0,1,1.08.63,3.78,3.78,0,0,1,.76.89,8.84,8.84,0,0,1,.54,1l-1.3.59a4.67,4.67,0,0,0-.37-.78,3,3,0,0,0-.52-.65,2.09,2.09,0,0,0-.7-.44,2.58,2.58,0,0,0-1-.16,2.43,2.43,0,0,0-2.22,1.13,5.49,5.49,0,0,0-.73,3v2.06a5.49,5.49,0,0,0,.73,3,2.43,2.43,0,0,0,2.22,1.13,2.58,2.58,0,0,0,1-.16,2.09,2.09,0,0,0,.7-.44,2.8,2.8,0,0,0,.52-.65,4.67,4.67,0,0,0,.37-.78l1.3.59a7.52,7.52,0,0,1-.54,1,3.73,3.73,0,0,1-.76.88,3.2,3.2,0,0,1-1.08.63A4.16,4.16,0,0,1,463.78,110.25Z"/><path class="cls-1" d="M472.19,110V97.47h7.74v1.31H473.7V103h6v1.32h-6v4.39h6.23V110Z"/><path class="cls-1" d="M488.53,110.25a5.43,5.43,0,0,1-2.77-.63A5.6,5.6,0,0,1,484,108l1.09-.9a5.52,5.52,0,0,0,1.56,1.36,4,4,0,0,0,1.95.45,3.07,3.07,0,0,0,2.09-.62,2.21,2.21,0,0,0,.72-1.76,1.9,1.9,0,0,0-.52-1.42,3.38,3.38,0,0,0-1.82-.72l-1.4-.24a5.27,5.27,0,0,1-1.54-.48,3.21,3.21,0,0,1-1-.79,2.82,2.82,0,0,1-.54-1,3.88,3.88,0,0,1-.16-1.14,3.11,3.11,0,0,1,1.13-2.61,4.86,4.86,0,0,1,3.06-.89,5.74,5.74,0,0,1,2.55.51,4.22,4.22,0,0,1,1.66,1.44l-1.06.91A4.46,4.46,0,0,0,490.49,99a3.73,3.73,0,0,0-1.91-.43,3.18,3.18,0,0,0-2,.53,2,2,0,0,0-.68,1.61,1.89,1.89,0,0,0,.51,1.37,3.37,3.37,0,0,0,1.85.76l1.35.24a5.37,5.37,0,0,1,1.54.48,3.44,3.44,0,0,1,1,.78,2.63,2.63,0,0,1,.55,1,4.08,4.08,0,0,1,.16,1.17,3.45,3.45,0,0,1-1.14,2.74A4.82,4.82,0,0,1,488.53,110.25Z"/></g></g></svg>