<svg xmlns="http://www.w3.org/2000/svg" viewBox="0 0 495.8 110.25"><defs><style>.cls-1{fill:#6296cf;}.cls-2{fill:#f0a031;}.cls-3{fill:#e2e4ed;}.cls-4{fill:#6c7394;}</style></defs><title>default_circleDot</title><g id="Layer_2" data-name="Layer 2"><g id="Layer_1-2" data-name="Layer 1"><polygon class="cls-1" points="13.85 110.03 9.3 110.03 60.94 14.75 84.18 50.11 111.28 0 161.28 110.03 156.85 110.03 110.97 8.99 84.51 57.9 61.27 22.53 13.85 110.03"/><polygon class="cls-2" points="175.56 97.69 154.46 91.02 152.43 86.18 176.77 93.88 175.56 97.69"/><path class="cls-2" d="M51.7,58.12a2.11,2.11,0,0,1-.61-.1l-1.91-.61A2,2,0,1,1,50.4,53.6l1.9.61a2,2,0,0,1-.6,3.91Z"/><path class="cls-2" d="M128.56,82.68a1.86,1.86,0,0,1-.61-.1l-3.84-1.22a2,2,0,1,1,1.21-3.81l3.85,1.22a2,2,0,0,1-.61,3.91Zm-15.37-4.91a1.81,1.81,0,0,1-.61-.1l-3.85-1.23A2,2,0,0,1,110,72.63l3.84,1.23a2,2,0,0,1-.6,3.91ZM97.81,72.85a2.2,2.2,0,0,1-.61-.09l-3.84-1.23a2,2,0,1,1,1.22-3.81L98.42,69a2,2,0,0,1-.61,3.9ZM82.44,67.94a2.15,2.15,0,0,1-.61-.09L78,66.62a2,2,0,1,1,1.22-3.81L83.05,64a2,2,0,0,1-.61,3.9ZM67.07,63a1.86,1.86,0,0,1-.61-.1L62.62,61.7a2,2,0,0,1-1.3-2.51,2,2,0,0,1,2.51-1.3l3.85,1.23A2,2,0,0,1,67.07,63Z"/><path class="cls-2" d="M142,87a2.2,2.2,0,0,1-.61-.09l-1.9-.61a2,2,0,1,1,1.22-3.81l1.9.61A2,2,0,0,1,142,87Z"/><polygon class="cls-2" points="37.92 53.82 0 41.74 1.22 37.93 39.89 50.25 37.92 53.82"/><path class="cls-2" d="M186.52,92.11a7,7,0,1,1-7,7,7,7,0,0,1,7-7m0-4a11,11,0,1,0,11,11,11,11,0,0,0-11-11Z"/><path class="cls-3" d="M230.38,43.44H218.14v18h-7.86V19.56h7.86V37h12.24V19.56h7.86V61.44h-7.86Z"/><path class="cls-3" d="M246.94,61.44V55.56h9.42V25.44h-9.42V19.56h26.64v5.88h-9.42V55.56h9.42v5.88Z"/><path class="cls-3" d="M297.34,62.16q-8.22,0-12.15-5.64t-3.93-16q0-10.32,3.93-16t12.15-5.67a16.41,16.41,0,0,1,5.49.84A13,13,0,0,1,306.94,22a12.49,12.49,0,0,1,2.88,3.52,20.12,20.12,0,0,1,1.8,4.52l-7.2,2a23.69,23.69,0,0,0-1-2.7,8.26,8.26,0,0,0-1.35-2.19,5.45,5.45,0,0,0-2-1.44,7.34,7.34,0,0,0-2.88-.51,6.19,6.19,0,0,0-5.85,3.14,17.39,17.39,0,0,0-1.77,8.55v7.23a17.44,17.44,0,0,0,1.77,8.55,6.18,6.18,0,0,0,5.85,3.13,7.34,7.34,0,0,0,2.88-.51,5.45,5.45,0,0,0,2-1.44,8.26,8.26,0,0,0,1.35-2.19,23.69,23.69,0,0,0,1-2.7l7.2,2a19.93,19.93,0,0,1-1.8,4.52A12.22,12.22,0,0,1,306.94,59a13,13,0,0,1-4.11,2.29A16.42,16.42,0,0,1,297.34,62.16Z"/><path class="cls-3" d="M331.78,62.16a21,21,0,0,1-9.21-1.84,17.4,17.4,0,0,1-6.21-4.88l4.74-4.92a15.57,15.57,0,0,0,5.07,4A13.52,13.52,0,0,0,332,55.8a8.28,8.28,0,0,0,5.52-1.63,5.85,5.85,0,0,0,1.92-4.72A4.88,4.88,0,0,0,338,45.62a9.49,9.49,0,0,0-4.86-1.85l-4.44-.72q-5.82-1-8.28-4.22A12.11,12.11,0,0,1,318,31.25q0-6,3.9-9.2t10.8-3.21a21.28,21.28,0,0,1,8.49,1.55,14.74,14.74,0,0,1,5.73,4.22l-4.62,4.91a12.61,12.61,0,0,0-4-3.15,12.21,12.21,0,0,0-5.52-1.17q-6.84,0-6.84,5.69a4.67,4.67,0,0,0,1.44,3.69,10.24,10.24,0,0,0,4.92,1.87l4.38.78q5.46,1,8.1,4a11.15,11.15,0,0,1,2.64,7.67,13.69,13.69,0,0,1-1,5.36,11.58,11.58,0,0,1-3,4.2,13.62,13.62,0,0,1-4.89,2.72A21.34,21.34,0,0,1,331.78,62.16Z"/><path class="cls-4" d="M216.7,80.33h-4.89V86h-1.52V73.47h1.52V79h4.89V73.47h1.51V86H216.7Z"/><path class="cls-4" d="M223,86v-1.2h3.13V74.67H223v-1.2h7.77v1.2h-3.13V84.83h3.13V86Z"/><path class="cls-4" d="M242.24,79.73v-4h-.14l-2.65,6.47-2.64-6.47h-.15V86h-1.38V73.47h1.94L239.43,79h.11l2.22-5.54h1.87V86h-1.39Z"/><path class="cls-4" d="M255.31,86l-1.06-3.58h-4.41L248.78,86h-1.57l3.85-12.56h2L256.91,86Zm-3.19-11H252l-1.76,6.07h3.69Z"/><path class="cls-4" d="M261.41,86V73.47h1.51V84.72h6V86Z"/><path class="cls-4" d="M280.51,86l-1.06-3.58H275L274,86h-1.57l3.85-12.56h2L282.11,86Zm-3.19-11h-.16l-1.76,6.07h3.69Z"/><path class="cls-4" d="M289.1,86V81.1l-4.34-7.63h1.73l1.8,3.27,1.53,2.87h.07l1.56-2.87,1.8-3.27H295l-4.34,7.63V86Z"/><path class="cls-4" d="M305.71,86l-1.06-3.58h-4.41L299.18,86h-1.57l3.85-12.56h2L307.31,86Zm-3.19-11h-.16l-1.76,6.07h3.69Z"/><path class="cls-4" d="M312.59,75.45h-.13V86h-1.37V73.47h2.14l4.29,10.58h.12V73.47H319V86h-2.14Z"/><path class="cls-4" d="M336.36,86v-1.2h3.13V74.67h-3.13v-1.2h7.78v1.2H341V84.83h3.13V86Z"/><path class="cls-4" d="M350.38,75.45h-.12V86h-1.37V73.47H351l4.29,10.58h.12V73.47h1.37V86h-2.14Z"/><path class="cls-4" d="M365.41,86.25a5.46,5.46,0,0,1-2.77-.63,5.71,5.71,0,0,1-1.78-1.6l1.1-.9a5.12,5.12,0,0,0,1.56,1.36,4,4,0,0,0,2,.46,3.09,3.09,0,0,0,2.09-.63,2.2,2.2,0,0,0,.72-1.75,1.91,1.91,0,0,0-.53-1.43,3.34,3.34,0,0,0-1.81-.72l-1.41-.24a5.37,5.37,0,0,1-1.54-.48,3.34,3.34,0,0,1-1-.79,2.82,2.82,0,0,1-.54-1,4.24,4.24,0,0,1-.16-1.14,3.1,3.1,0,0,1,1.14-2.61,4.82,4.82,0,0,1,3.06-.89,5.72,5.72,0,0,1,2.54.51,4.25,4.25,0,0,1,1.67,1.44l-1.06.91A4.46,4.46,0,0,0,367.38,75a3.75,3.75,0,0,0-1.91-.43,3.16,3.16,0,0,0-2,.53,1.92,1.92,0,0,0-.69,1.61,1.85,1.85,0,0,0,.52,1.37,3.34,3.34,0,0,0,1.84.76l1.35.24a5.45,5.45,0,0,1,1.55.48,3.44,3.44,0,0,1,1,.78,2.6,2.6,0,0,1,.54,1,4.09,4.09,0,0,1,.17,1.17,3.42,3.42,0,0,1-1.15,2.74A4.8,4.8,0,0,1,365.41,86.25Z"/><path class="cls-4" d="M378.81,74.78V86h-1.52V74.78H373.1V73.47H383v1.31Z"/><path class="cls-4" d="M386.76,86v-1.2h3.13V74.67h-3.13v-1.2h7.78v1.2h-3.13V84.83h3.13V86Z"/><path class="cls-4" d="M404,74.78V86h-1.52V74.78H398.3V73.47h9.9v1.31Z"/><path class="cls-4" d="M413.4,73.47V81c0,.61,0,1.16.06,1.64a3.59,3.59,0,0,0,.28,1.23,1.67,1.67,0,0,0,.73.78,3.54,3.54,0,0,0,2.76,0,1.67,1.67,0,0,0,.73-.78,3.59,3.59,0,0,0,.28-1.23c0-.48.06-1,.06-1.64V73.47h1.51v7.18a17.61,17.61,0,0,1-.14,2.45,4.46,4.46,0,0,1-.55,1.74,2.72,2.72,0,0,1-1.21,1.06,6.24,6.24,0,0,1-4.12,0,2.72,2.72,0,0,1-1.21-1.06A4.46,4.46,0,0,1,412,83.1a19.31,19.31,0,0,1-.14-2.45V73.47Z"/><path class="cls-4" d="M429.21,74.78V86h-1.52V74.78H423.5V73.47h9.9v1.31Z"/><path class="cls-4" d="M437.27,86V73.47H445v1.31h-6.23V79h6v1.32h-6v4.39H445V86Z"/><path class="cls-4" d="M210.47,110V97.47h7.92v1.31H212V103h5.86v1.32H212V110Z"/><path class="cls-4" d="M226.85,110.25a4.25,4.25,0,0,1-2-.44,3.75,3.75,0,0,1-1.36-1.27,5.92,5.92,0,0,1-.8-2,15.2,15.2,0,0,1,0-5.49,6.06,6.06,0,0,1,.8-2.05,3.75,3.75,0,0,1,1.36-1.27,4.25,4.25,0,0,1,2-.44,4.19,4.19,0,0,1,2,.44A3.7,3.7,0,0,1,230.2,99,5.85,5.85,0,0,1,231,101a14.62,14.62,0,0,1,0,5.49,5.72,5.72,0,0,1-.79,2,3.7,3.7,0,0,1-1.37,1.27A4.19,4.19,0,0,1,226.85,110.25Zm0-1.31a2.53,2.53,0,0,0,1.28-.3,2.49,2.49,0,0,0,.87-.84,3.91,3.91,0,0,0,.49-1.3,9,9,0,0,0,.15-1.72v-2a8.92,8.92,0,0,0-.15-1.71A4,4,0,0,0,229,99.7a2.49,2.49,0,0,0-.87-.84,2.63,2.63,0,0,0-1.28-.29,2.59,2.59,0,0,0-1.27.29,2.49,2.49,0,0,0-.87.84,3.74,3.74,0,0,0-.49,1.32,8.15,8.15,0,0,0-.16,1.71v2a8.25,8.25,0,0,0,.16,1.72,3.71,3.71,0,0,0,.49,1.3,2.37,2.37,0,0,0,2.14,1.14Z"/><path class="cls-4" d="M237.18,110h-1.51V97.47h4.58a3.54,3.54,0,0,1,2.66,1,3.72,3.72,0,0,1,.92,2.67,3.63,3.63,0,0,1-.79,2.44,3.32,3.32,0,0,1-2.31,1.07l3.2,5.43h-1.69l-3.06-5.36h-2Zm3-6.64a2.11,2.11,0,0,0,1.48-.48,1.69,1.69,0,0,0,.53-1.35v-.94a1.71,1.71,0,0,0-.53-1.36,2.11,2.11,0,0,0-1.48-.48h-3v4.61Z"/><path class="cls-4" d="M265.07,110.25a3.84,3.84,0,0,1-3.43-1.68,8.61,8.61,0,0,1-1.13-4.82,8.61,8.61,0,0,1,1.13-4.82,3.84,3.84,0,0,1,3.43-1.68,4.19,4.19,0,0,1,1.49.24,3.2,3.2,0,0,1,1.08.63,4,4,0,0,1,.76.89,10.78,10.78,0,0,1,.54,1l-1.3.59a4.7,4.7,0,0,0-.38-.78,2.72,2.72,0,0,0-.51-.65,2.19,2.19,0,0,0-.7-.44,2.61,2.61,0,0,0-1-.16,2.46,2.46,0,0,0-2.23,1.13,5.59,5.59,0,0,0-.72,3v2a5.58,5.58,0,0,0,.72,3,2.47,2.47,0,0,0,2.23,1.14,2.61,2.61,0,0,0,1-.17,2.19,2.19,0,0,0,.7-.44,2.53,2.53,0,0,0,.51-.65,4.7,4.7,0,0,0,.38-.78l1.3.59a8.86,8.86,0,0,1-.54,1,4,4,0,0,1-.76.88,3.4,3.4,0,0,1-1.08.64A4.44,4.44,0,0,1,265.07,110.25Z"/><path class="cls-4" d="M277.25,110.25a4.19,4.19,0,0,1-2-.44,3.78,3.78,0,0,1-1.37-1.27,5.92,5.92,0,0,1-.79-2,15.2,15.2,0,0,1,0-5.49A6.05,6.05,0,0,1,273.9,99a3.78,3.78,0,0,1,1.37-1.27,4.68,4.68,0,0,1,4,0A3.78,3.78,0,0,1,280.6,99a6.05,6.05,0,0,1,.79,2.05,15.2,15.2,0,0,1,0,5.49,5.92,5.92,0,0,1-.79,2,3.78,3.78,0,0,1-1.37,1.27A4.19,4.19,0,0,1,277.25,110.25Zm0-1.31a2.53,2.53,0,0,0,1.28-.3,2.38,2.38,0,0,0,.86-.84,3.72,3.72,0,0,0,.5-1.3,9,9,0,0,0,.15-1.72v-2a8.92,8.92,0,0,0-.15-1.71,3.75,3.75,0,0,0-.5-1.32,2.38,2.38,0,0,0-.86-.84,2.63,2.63,0,0,0-1.28-.29,2.66,2.66,0,0,0-1.28.29,2.55,2.55,0,0,0-.86.84,3.74,3.74,0,0,0-.49,1.32,8.15,8.15,0,0,0-.16,1.71v2a8.25,8.25,0,0,0,.16,1.72,3.71,3.71,0,0,0,.49,1.3,2.34,2.34,0,0,0,2.14,1.14Z"/><path class="cls-4" d="M287.39,99.45h-.13V110h-1.37V97.47H288l4.29,10.58h.12V97.47h1.37V110h-2.14Z"/><path class="cls-4" d="M303.21,98.78V110H301.7V98.78h-4.2V97.47h9.9v1.31Z"/><path class="cls-4" d="M311.27,110V97.47H319v1.31h-6.23V103h6v1.32h-6v4.39H319V110Z"/><path class="cls-4" d="M332.6,110h-1.71l-1.49-2.5-1.66-2.74h-.07L326,107.53l-1.58,2.5h-1.66l4.1-6.41L323,97.47h1.71l1.46,2.43,1.57,2.54h.07l1.55-2.54,1.51-2.43h1.66l-3.89,6.14Z"/><path class="cls-4" d="M341,98.78V110h-1.52V98.78H335.3V97.47h9.9v1.31Z"/><path class="cls-4" d="M350.4,97.47V105c0,.61,0,1.16.06,1.64a3.59,3.59,0,0,0,.28,1.23,1.67,1.67,0,0,0,.73.78,3.54,3.54,0,0,0,2.76,0,1.67,1.67,0,0,0,.73-.78,3.59,3.59,0,0,0,.28-1.23c0-.48.06-1,.06-1.64V97.47h1.51v7.18a19.48,19.48,0,0,1-.13,2.45,4.46,4.46,0,0,1-.56,1.74,2.67,2.67,0,0,1-1.21,1.06,6.24,6.24,0,0,1-4.12,0,2.72,2.72,0,0,1-1.21-1.06,4.46,4.46,0,0,1-.55-1.74,19.31,19.31,0,0,1-.14-2.45V97.47Z"/><path class="cls-4" d="M368.71,110l-1.06-3.58h-4.41L362.17,110h-1.56l3.85-12.56h2L370.31,110Zm-3.19-11h-.16l-1.76,6.07h3.69Z"/><path class="cls-4" d="M374.81,110V97.47h1.51v11.25h6V110Z"/><path class="cls-4" d="M403.21,110.25a5.46,5.46,0,0,1-2.77-.63,5.71,5.71,0,0,1-1.78-1.6l1.1-.9a5.12,5.12,0,0,0,1.56,1.36,4,4,0,0,0,1.95.46,3.09,3.09,0,0,0,2.09-.63,2.2,2.2,0,0,0,.72-1.75,1.91,1.91,0,0,0-.53-1.43,3.34,3.34,0,0,0-1.81-.72l-1.41-.24a5.37,5.37,0,0,1-1.54-.48,3.34,3.34,0,0,1-1-.79,2.82,2.82,0,0,1-.54-1,4.24,4.24,0,0,1-.16-1.14,3.1,3.1,0,0,1,1.14-2.61,4.82,4.82,0,0,1,3.06-.89,5.72,5.72,0,0,1,2.54.51,4.25,4.25,0,0,1,1.67,1.44l-1.06.91A4.46,4.46,0,0,0,405.18,99a3.75,3.75,0,0,0-1.91-.43,3.16,3.16,0,0,0-2,.53,1.92,1.92,0,0,0-.69,1.61,1.85,1.85,0,0,0,.52,1.37,3.34,3.34,0,0,0,1.84.76l1.35.24a5.45,5.45,0,0,1,1.55.48,3.44,3.44,0,0,1,1,.78,2.6,2.6,0,0,1,.54,1,4.09,4.09,0,0,1,.17,1.17,3.42,3.42,0,0,1-1.15,2.74A4.8,4.8,0,0,1,403.21,110.25Z"/><path class="cls-4" d="M416.26,110.25a3.85,3.85,0,0,1-3.43-1.68,8.61,8.61,0,0,1-1.12-4.82,8.61,8.61,0,0,1,1.12-4.82,3.85,3.85,0,0,1,3.43-1.68,4.21,4.21,0,0,1,1.5.24,3.2,3.2,0,0,1,1.08.63,3.74,3.74,0,0,1,.75.89,7.49,7.49,0,0,1,.54,1l-1.29.59a5.65,5.65,0,0,0-.38-.78,2.72,2.72,0,0,0-.51-.65,2.13,2.13,0,0,0-.71-.44,2.54,2.54,0,0,0-1-.16A2.46,2.46,0,0,0,414,99.7a5.59,5.59,0,0,0-.73,3v2a5.58,5.58,0,0,0,.73,3,2.46,2.46,0,0,0,2.22,1.14,2.53,2.53,0,0,0,1-.17,2.13,2.13,0,0,0,.71-.44,2.53,2.53,0,0,0,.51-.65,5.65,5.65,0,0,0,.38-.78l1.29.59a6.53,6.53,0,0,1-.54,1,3.69,3.69,0,0,1-.75.88,3.4,3.4,0,0,1-1.08.64A4.46,4.46,0,0,1,416.26,110.25Z"/><path class="cls-4" d="M424.56,110v-1.2h3.13V98.67h-3.13v-1.2h7.78v1.2h-3.13v10.16h3.13V110Z"/><path class="cls-4" d="M437.27,110V97.47H445v1.31h-6.23V103h6v1.32h-6v4.39H445V110Z"/><path class="cls-4" d="M451.18,99.45h-.12V110h-1.37V97.47h2.14l4.29,10.58h.12V97.47h1.37V110h-2.14Z"/><path class="cls-4" d="M466.66,110.25a3.85,3.85,0,0,1-3.43-1.68,8.61,8.61,0,0,1-1.12-4.82,8.61,8.61,0,0,1,1.12-4.82,3.85,3.85,0,0,1,3.43-1.68,4.21,4.21,0,0,1,1.5.24,3.2,3.2,0,0,1,1.08.63A3.74,3.74,0,0,1,470,99a7.49,7.49,0,0,1,.54,1l-1.29.59a5.65,5.65,0,0,0-.38-.78,3,3,0,0,0-.51-.65,2.24,2.24,0,0,0-.71-.44,2.58,2.58,0,0,0-1-.16,2.46,2.46,0,0,0-2.22,1.13,5.5,5.5,0,0,0-.73,3v2a5.49,5.49,0,0,0,.73,3,2.46,2.46,0,0,0,2.22,1.14,2.57,2.57,0,0,0,1-.17,2.24,2.24,0,0,0,.71-.44,2.77,2.77,0,0,0,.51-.65,5.65,5.65,0,0,0,.38-.78l1.29.59a6.53,6.53,0,0,1-.54,1,3.69,3.69,0,0,1-.75.88,3.4,3.4,0,0,1-1.08.64A4.46,4.46,0,0,1,466.66,110.25Z"/><path class="cls-4" d="M475.07,110V97.47h7.74v1.31h-6.23V103h6v1.32h-6v4.39h6.23V110Z"/><path class="cls-4" d="M491.41,110.25a5.43,5.43,0,0,1-2.77-.63,5.71,5.71,0,0,1-1.78-1.6l1.1-.9a5.21,5.21,0,0,0,1.55,1.36,4,4,0,0,0,2,.46,3,3,0,0,0,2.08-.63,2.2,2.2,0,0,0,.72-1.75,1.9,1.9,0,0,0-.52-1.43,3.38,3.38,0,0,0-1.82-.72l-1.4-.24a5.37,5.37,0,0,1-1.54-.48,3.21,3.21,0,0,1-1-.79,2.82,2.82,0,0,1-.54-1,3.88,3.88,0,0,1-.16-1.14,3.12,3.12,0,0,1,1.13-2.61,4.86,4.86,0,0,1,3.06-.89,5.74,5.74,0,0,1,2.55.51,4.25,4.25,0,0,1,1.67,1.44l-1.07.91A4.2,4.2,0,0,0,493.37,99a3.69,3.69,0,0,0-1.9-.43,3.19,3.19,0,0,0-2,.53,2,2,0,0,0-.68,1.61,1.89,1.89,0,0,0,.51,1.37,3.41,3.41,0,0,0,1.85.76l1.35.24a5.45,5.45,0,0,1,1.55.48,3.27,3.27,0,0,1,1,.78,2.63,2.63,0,0,1,.55,1,4.08,4.08,0,0,1,.16,1.17,3.45,3.45,0,0,1-1.14,2.74A4.8,4.8,0,0,1,491.41,110.25Z"/></g></g></svg>