<svg xmlns="http://www.w3.org/2000/svg" viewBox="0 0 388.89 110.04"><defs><style>.cls-1{fill:#e2e4ed;}</style></defs><title>small_mono</title><g id="Layer_2" data-name="Layer 2"><g id="Layer_1-2" data-name="Layer 1"><polygon class="cls-1" points="13.97 110.03 9.42 110.03 61.05 14.75 84.3 50.11 111.4 0 161.4 110.03 156.97 110.03 111.08 8.99 84.63 57.9 61.38 22.53 13.97 110.03"/><polygon class="cls-1" points="185.92 102.7 154.46 92.74 152.43 87.91 187.13 98.89 185.92 102.7"/><path class="cls-1" d="M51.69,59.84a1.8,1.8,0,0,1-.6-.1l-1.91-.6a2,2,0,1,1,1.22-3.81l1.9.6a2,2,0,0,1-.61,3.91Z"/><path class="cls-1" d="M128.56,84.41a2.16,2.16,0,0,1-.61-.1l-3.84-1.23a2,2,0,1,1,1.21-3.81l3.85,1.23a2,2,0,0,1-.61,3.91Zm-15.38-4.92a2.08,2.08,0,0,1-.6-.09l-3.85-1.23A2,2,0,0,1,110,74.36l3.84,1.23a2,2,0,0,1-.61,3.9ZM97.81,74.58a1.9,1.9,0,0,1-.61-.1l-3.84-1.22a2,2,0,1,1,1.22-3.81l3.84,1.22a2,2,0,0,1-.61,3.91ZM82.44,69.67a1.86,1.86,0,0,1-.61-.1L78,68.34a2,2,0,1,1,1.22-3.81l3.84,1.23a2,2,0,0,1-.61,3.91ZM67.07,64.75a2.15,2.15,0,0,1-.61-.09l-3.85-1.23a2,2,0,0,1,1.22-3.81l3.85,1.23a2,2,0,0,1-.61,3.9Z"/><path class="cls-1" d="M142,88.7a1.9,1.9,0,0,1-.61-.1l-1.9-.61a2,2,0,1,1,1.22-3.81l1.9.61A2,2,0,0,1,142,88.7Z"/><polygon class="cls-1" points="37.92 55.55 0 43.47 1.22 39.66 39.89 51.98 37.92 55.55"/><circle class="cls-1" cx="186.52" cy="100.8" r="9.24"/><path class="cls-1" d="M232.89,58.94H216.57v24H206.09V27.1h10.48V50.3h16.32V27.1h10.48V82.94H232.89Z"/><path class="cls-1" d="M255,82.94V75.1h12.56V34.94H255V27.1h35.52v7.84H277.93V75.1h12.56v7.84Z"/><path class="cls-1" d="M322.17,83.9q-11,0-16.2-7.52T300.73,55q0-13.76,5.24-21.32t16.2-7.56a22.09,22.09,0,0,1,7.32,1.11A17.54,17.54,0,0,1,335,30.3,16.39,16.39,0,0,1,338.81,35a26.91,26.91,0,0,1,2.4,6l-9.6,2.72a31,31,0,0,0-1.28-3.6,11.06,11.06,0,0,0-1.8-2.92,7.16,7.16,0,0,0-2.68-1.92,9.87,9.87,0,0,0-3.84-.68q-5.44,0-7.8,4.18t-2.36,11.4v9.64q0,7.23,2.36,11.4t7.8,4.18a9.87,9.87,0,0,0,3.84-.68,7.16,7.16,0,0,0,2.68-1.92,11.06,11.06,0,0,0,1.8-2.92,31,31,0,0,0,1.28-3.6l9.6,2.72a26.91,26.91,0,0,1-2.4,6A16.26,16.26,0,0,1,335,79.74a17.35,17.35,0,0,1-5.48,3.05A22.09,22.09,0,0,1,322.17,83.9Z"/><path class="cls-1" d="M368.09,83.9a28,28,0,0,1-12.28-2.46,23.1,23.1,0,0,1-8.28-6.5l6.32-6.56a20.76,20.76,0,0,0,6.76,5.32,18,18,0,0,0,7.8,1.72c3.2,0,5.65-.72,7.36-2.18A7.77,7.77,0,0,0,378.33,67a6.54,6.54,0,0,0-1.92-5.12q-1.92-1.74-6.48-2.46l-5.92-1q-7.75-1.35-11-5.63a16.11,16.11,0,0,1-3.28-10.11q0-8,5.2-12.26t14.4-4.28a28.43,28.43,0,0,1,11.32,2.06,19.68,19.68,0,0,1,7.64,5.63l-6.16,6.55a16.78,16.78,0,0,0-5.36-4.2,16.26,16.26,0,0,0-7.36-1.56q-9.12,0-9.12,7.58a6.22,6.22,0,0,0,1.92,4.92q1.92,1.7,6.56,2.5l5.84,1Q381.85,52,385.37,56a14.91,14.91,0,0,1,3.52,10.23,18.19,18.19,0,0,1-1.36,7.15,15.45,15.45,0,0,1-4,5.6A18.14,18.14,0,0,1,377,82.62,28.28,28.28,0,0,1,368.09,83.9Z"/></g></g></svg>