<svg xmlns="http://www.w3.org/2000/svg" viewBox="0 0 388.77 110.04"><defs><style>.cls-1{fill:#6296cf;}.cls-2{fill:#f0a031;}.cls-3{fill:#e2e4ed;}</style></defs><title>small_circleDot</title><g id="Layer_2" data-name="Layer 2"><g id="Layer_1-2" data-name="Layer 1"><polygon class="cls-1" points="13.85 110.03 9.3 110.03 60.94 14.75 84.18 50.11 111.28 0 161.28 110.03 156.85 110.03 110.97 8.99 84.51 57.9 61.27 22.53 13.85 110.03"/><polygon class="cls-2" points="175.56 97.69 154.46 91.02 152.43 86.18 176.77 93.88 175.56 97.69"/><path class="cls-2" d="M51.7,58.12a2.11,2.11,0,0,1-.61-.1l-1.91-.61A2,2,0,1,1,50.4,53.6l1.9.61a2,2,0,0,1-.6,3.91Z"/><path class="cls-2" d="M128.56,82.68a1.86,1.86,0,0,1-.61-.1l-3.84-1.22a2,2,0,1,1,1.21-3.81l3.85,1.22a2,2,0,0,1-.61,3.91Zm-15.37-4.91a1.81,1.81,0,0,1-.61-.1l-3.85-1.23A2,2,0,0,1,110,72.63l3.84,1.23a2,2,0,0,1-.6,3.91ZM97.81,72.85a2.2,2.2,0,0,1-.61-.09l-3.84-1.23a2,2,0,1,1,1.22-3.81L98.42,69a2,2,0,0,1-.61,3.9ZM82.44,67.94a2.15,2.15,0,0,1-.61-.09L78,66.62a2,2,0,1,1,1.22-3.81L83.05,64a2,2,0,0,1-.61,3.9ZM67.07,63a1.86,1.86,0,0,1-.61-.1L62.62,61.7a2,2,0,0,1-1.3-2.51,2,2,0,0,1,2.51-1.3l3.85,1.23A2,2,0,0,1,67.07,63Z"/><path class="cls-2" d="M142,87a2.2,2.2,0,0,1-.61-.09l-1.9-.61a2,2,0,1,1,1.22-3.81l1.9.61A2,2,0,0,1,142,87Z"/><polygon class="cls-2" points="37.92 53.82 0 41.74 1.22 37.93 39.89 50.25 37.92 53.82"/><path class="cls-2" d="M186.52,92.11a7,7,0,1,1-7,7,7,7,0,0,1,7-7m0-4a11,11,0,1,0,11,11,11,11,0,0,0-11-11Z"/><path class="cls-3" d="M232.77,58.94H216.45v24H206V27.1h10.48V50.3h16.32V27.1h10.48V82.94H232.77Z"/><path class="cls-3" d="M254.85,82.94V75.1h12.56V34.94H254.85V27.1h35.52v7.84H277.81V75.1h12.56v7.84Z"/><path class="cls-3" d="M322.05,83.9q-10.95,0-16.2-7.52T300.61,55q0-13.76,5.24-21.32t16.2-7.56a22,22,0,0,1,7.32,1.11,17.37,17.37,0,0,1,5.48,3.06A16.22,16.22,0,0,1,338.69,35a26.82,26.82,0,0,1,2.4,6l-9.6,2.72a31,31,0,0,0-1.28-3.6,11.06,11.06,0,0,0-1.8-2.92,7.39,7.39,0,0,0-2.68-1.92,9.84,9.84,0,0,0-3.84-.68c-3.63,0-6.22,1.4-7.8,4.18s-2.36,6.59-2.36,11.41v9.63q0,7.23,2.36,11.41c1.58,2.78,4.17,4.17,7.8,4.17a9.66,9.66,0,0,0,3.84-.68,7.16,7.16,0,0,0,2.68-1.92,10.9,10.9,0,0,0,1.8-2.92,31,31,0,0,0,1.28-3.6l9.6,2.72a26.45,26.45,0,0,1-2.4,6,16.13,16.13,0,0,1-3.84,4.69,17.37,17.37,0,0,1-5.48,3.06A22.32,22.32,0,0,1,322.05,83.9Z"/><path class="cls-3" d="M368,83.9a28.13,28.13,0,0,1-12.28-2.45,23.23,23.23,0,0,1-8.28-6.51l6.32-6.56a20.63,20.63,0,0,0,6.76,5.32,18,18,0,0,0,7.8,1.72q4.8,0,7.36-2.17A7.79,7.79,0,0,0,378.21,67a6.55,6.55,0,0,0-1.92-5.12q-1.92-1.73-6.48-2.46l-5.92-1q-7.75-1.35-11-5.63a16.17,16.17,0,0,1-3.28-10.11q0-8,5.2-12.26t14.4-4.28a28.25,28.25,0,0,1,11.32,2.07,19.49,19.49,0,0,1,7.64,5.62L382,40.38a16.78,16.78,0,0,0-5.36-4.2,16.26,16.26,0,0,0-7.36-1.56q-9.12,0-9.12,7.58a6.22,6.22,0,0,0,1.92,4.92q1.92,1.7,6.56,2.5l5.84,1c4.85.91,8.46,2.69,10.8,5.36a14.87,14.87,0,0,1,3.52,10.22,18.27,18.27,0,0,1-1.36,7.16,15.5,15.5,0,0,1-4,5.59,18.31,18.31,0,0,1-6.52,3.64A28.58,28.58,0,0,1,368,83.9Z"/></g></g></svg>